<svg width="797" height="154" viewBox="141.72 461.75 797 154" fill="none" xmlns="http://www.w3.org/2000/svg">
<g>
<path d="M215.177 596.988L217.067 592.222C217.067 592.222 167.88 571.717 162.555 592.832C162.471 592.748 162.387 592.664 162.309 592.58C162.197 592.468 162.085 592.351 161.979 592.239C159.596 589.7 156.111 585.421 155.474 584.638C155.446 584.604 155.418 584.559 155.384 584.526C155.379 584.52 155.379 584.515 155.373 584.509C155.586 577.635 161.453 556.66 225.452 576.802L229.054 573.071L242.852 596.059L215.177 596.982V596.988Z" fill="#2E3091"/>
<path d="M264.621 598.587C264.19 598.929 263.754 599.275 263.312 599.611C262.87 599.947 262.423 600.282 261.975 600.607C261.075 601.267 260.158 601.904 259.235 602.52C258.77 602.833 258.306 603.135 257.831 603.437C257.389 603.722 256.941 604.002 256.488 604.276C256.136 604.488 255.778 604.707 255.426 604.908C251.074 607.458 246.443 609.589 241.593 611.251C241.577 611.262 241.554 611.267 241.537 611.273C241.409 611.318 241.274 611.363 241.14 611.407L230.468 599.991L247.847 598.677L239.06 582.529L264.627 598.582L264.621 598.587Z" fill="#2E3091"/>
<path d="M290.994 557.454C287.856 569.709 281.77 580.778 273.537 589.851C243.49 562.88 212.939 551.565 212.939 551.565C143.756 526.154 147.279 563.243 151.827 579.324C151.631 579.005 151.43 578.686 151.234 578.356C151.206 578.312 151.178 578.256 151.144 578.211C151.044 578.049 150.949 577.887 150.854 577.719C150.619 577.316 150.389 576.919 150.16 576.522C149.931 576.125 149.707 575.711 149.483 575.308C149.377 575.124 149.282 574.928 149.176 574.743C148.985 574.391 148.795 574.027 148.616 573.669C148.566 573.569 148.51 573.473 148.46 573.367C145.657 567.796 143.493 561.772 142.089 555.586C141.988 555.144 141.893 554.697 141.798 554.255C141.776 554.132 141.753 554.009 141.72 553.88C158.175 480.379 273.05 541.301 290.988 557.465L290.994 557.454Z" fill="#2E3091"/>
<path d="M293.343 538.644V538.812C293.343 539.097 293.331 539.377 293.331 539.656C293.326 539.796 293.326 539.936 293.326 540.076C293.315 540.523 293.298 540.976 293.281 541.418C284.69 532.978 240.195 493.467 168.634 501.661L171.621 507.087L147.234 506.824C147.285 506.701 147.341 506.583 147.397 506.46C147.738 505.727 148.09 505 148.454 504.284C151.457 498.49 155.406 493.165 159.652 488.327L162.459 492.326C162.459 492.326 240.475 476.939 291.48 521.97C292.565 526.758 293.186 531.719 293.32 536.804C293.326 537.139 293.331 537.486 293.337 537.822C293.343 538.096 293.343 538.37 293.343 538.644Z" fill="#2E3091"/>
<path d="M278.453 495.027C278.073 495.687 277.379 496.728 276.831 497.533C276.44 498.109 275.651 498.065 275.193 497.539C244.653 462.748 200.846 467.816 180.71 477.079C180.386 477.207 180.101 477.263 179.905 477.336C179.486 477.492 176.543 477.918 177.248 473.644C177.248 473.644 177.254 473.644 177.254 473.639C179.211 472.47 181.208 471.379 183.272 470.378C183.457 470.283 183.653 470.199 183.837 470.115C184.67 469.729 185.465 469.371 186.142 469.075C186.287 469.013 186.432 468.946 186.572 468.89C186.606 468.868 186.651 468.856 186.684 468.84C186.846 468.772 187.003 468.7 187.143 468.644C187.439 468.515 187.736 468.392 188.038 468.275C188.547 468.073 189.05 467.872 189.559 467.682C197.843 464.577 206.479 462.955 215.081 462.765C216.815 462.732 218.56 462.754 220.294 462.827H220.389C220.965 462.855 221.547 462.888 222.129 462.933C222.604 462.961 223.08 463 223.555 463.045C223.594 463.051 223.633 463.051 223.673 463.056C223.958 463.078 224.243 463.106 224.523 463.14C241.28 464.84 256.438 471.938 268.234 482.661C268.509 482.907 268.783 483.153 269.051 483.41C269.286 483.634 269.538 483.88 269.817 484.148C269.957 484.283 270.097 484.417 270.237 484.562C270.64 484.959 271.07 485.39 271.523 485.849C271.713 486.033 271.904 486.229 272.083 486.419C272.273 486.615 272.469 486.822 272.664 487.023C272.726 487.085 272.787 487.152 272.838 487.208C274.823 489.333 276.68 491.582 278.409 493.926C278.644 494.25 278.666 494.681 278.47 495.022L278.453 495.027Z" fill="#2E3091"/>
<path d="M938.55 495.75V512.53H909.68V582.4H889.54V512.55L860 512.53V495.75H938.55Z" fill="#2E3091"/>
<path d="M561.951 548.51C579.271 545.86 589.991 530.2 584.591 513.12C583.841 510.74 582.461 508.36 580.691 506.15C575.281 499.45 566.961 495.76 558.351 495.76H502.881L502.741 513.34V582.41H523.681V550.85H538.791C540.751 550.85 558.811 579.17 562.281 582.41H589.471L561.951 548.51ZM552.481 533.54H547.841C547.121 533.55 546.391 533.55 545.651 533.54H524.351V511.99H552.481C558.411 511.99 563.261 516.84 563.261 522.77C563.261 525.74 562.051 528.43 560.091 530.38C558.141 532.33 555.451 533.54 552.481 533.54Z" fill="#2E3091"/>
<path d="M348.331 527.22C347.981 528.62 347.801 530.09 347.801 531.6H397.461V548.84H347.801C347.801 550.01 347.921 551.15 348.151 552.25C349.721 559.71 356.341 565.31 364.261 565.31H397.461V582.33H369.161C345.431 582.33 326.011 562.91 326.011 539.17V538.74C326.011 538.65 326.011 538.56 326.021 538.47C326.041 537.97 326.051 537.46 326.071 536.96V536.92C326.641 525.94 331.371 516.02 338.691 508.7C344.991 502.4 353.201 498.03 362.361 496.56C364.551 496.32 366.761 496.15 368.971 496.02H397.461V513.2H366.201C363.271 513.2 360.501 513.89 358.041 515.1C356.241 516 354.601 517.18 353.191 518.59C350.851 520.93 349.141 523.89 348.331 527.2V527.22Z" fill="#2E3091"/>
<path d="M804.331 527.22C803.981 528.62 803.801 530.09 803.801 531.6H853.461V548.84H803.801C803.801 550.01 803.921 551.15 804.151 552.25C805.721 559.71 812.341 565.31 820.261 565.31H853.461V582.33H825.161C801.431 582.33 782.011 562.91 782.011 539.17V538.74C782.011 538.65 782.011 538.56 782.021 538.47C782.041 537.97 782.051 537.46 782.071 536.96V536.92C782.641 525.94 787.371 516.02 794.691 508.7C800.991 502.4 809.201 498.03 818.361 496.56C820.551 496.32 822.761 496.15 824.971 496.02H853.461V513.2H822.201C819.271 513.2 816.501 513.89 814.041 515.1C812.241 516 810.601 517.18 809.191 518.59C806.851 520.93 805.141 523.89 804.331 527.2V527.22Z" fill="#2E3091"/>
<path d="M489.431 495.76V543.99C489.431 569.54 471.531 582.31 447.721 582.31C423.911 582.31 410.071 569.84 410.071 544.88V495.76H430.421L430.511 545.26C430.511 559.02 437.671 565.76 448.431 565.76C459.191 565.76 468.651 558.9 468.651 545.61L468.631 495.76H489.431Z" fill="#2E3091"/>
<path d="M637.621 495.75C598.591 495.75 591.901 515.15 591.901 539.08C591.901 568.57 602.291 582.5 637.621 582.4C668.671 582.32 683.331 567.42 683.331 539.08C683.331 515.15 670.591 495.75 637.621 495.75ZM660.541 548.66C660.541 557.76 653.101 565.2 644.001 565.2H631.231C622.131 565.2 614.691 557.76 614.691 548.66V529.5C614.691 520.4 622.131 512.95 631.231 512.95H644.001C653.101 512.95 660.541 520.4 660.541 529.5V548.66Z" fill="#2E3091"/>
<path d="M712.321 582.31H691.171L691.231 522.75C691.231 519.56 691.431 516.37 691.931 513.21C695.851 488.49 711.261 489.82 728.701 519.38L767.311 582.31L747.611 582.33L712.321 526.7V582.31Z" fill="#2E3091"/>
<path d="M773.061 582.02L721.901 495.75H754.921C771.001 495.75 773.061 511.59 773.061 534.02V582.02Z" fill="#2E3091"/>
</g>
</svg>
