<svg width="797" height="154" viewBox="141.26 460.75 797 154" fill="none" xmlns="http://www.w3.org/2000/svg">
<rect width="797" height="154" fill="#0F1724"/>
<g>
<path d="M214.717 595.988L216.607 591.222C216.607 591.222 167.42 570.717 162.095 591.832C162.011 591.748 161.927 591.664 161.849 591.58C161.737 591.468 161.625 591.351 161.519 591.239C159.136 588.7 155.651 584.421 155.014 583.638C154.986 583.604 154.958 583.559 154.924 583.526C154.919 583.52 154.919 583.515 154.913 583.509C155.126 576.635 160.993 555.66 224.992 575.802L228.594 572.071L242.392 595.059L214.717 595.982V595.988Z" fill="white"/>
<path d="M264.161 597.587C263.73 597.929 263.294 598.275 262.852 598.611C262.41 598.947 261.963 599.282 261.515 599.607C260.615 600.267 259.698 600.904 258.775 601.52C258.31 601.833 257.846 602.135 257.371 602.437C256.929 602.722 256.481 603.002 256.028 603.276C255.676 603.488 255.318 603.707 254.966 603.908C250.614 606.458 245.983 608.589 241.133 610.251C241.117 610.262 241.094 610.267 241.077 610.273C240.949 610.318 240.815 610.363 240.68 610.407L230.008 598.991L247.387 597.677L238.6 581.529L264.167 597.582L264.161 597.587Z" fill="white"/>
<path d="M290.534 556.454C287.396 568.709 281.311 579.778 273.077 588.851C243.03 561.88 212.479 550.565 212.479 550.565C143.296 525.154 146.819 562.243 151.367 578.324C151.171 578.005 150.97 577.686 150.774 577.356C150.746 577.312 150.718 577.256 150.684 577.211C150.584 577.049 150.489 576.887 150.394 576.719C150.159 576.316 149.929 575.919 149.7 575.522C149.471 575.125 149.247 574.711 149.023 574.308C148.917 574.124 148.822 573.928 148.716 573.743C148.525 573.391 148.335 573.027 148.156 572.669C148.106 572.569 148.05 572.473 148 572.367C145.197 566.796 143.033 560.772 141.629 554.586C141.528 554.144 141.433 553.697 141.338 553.255C141.316 553.132 141.293 553.009 141.26 552.88C157.715 479.379 272.591 540.301 290.528 556.465L290.534 556.454Z" fill="white"/>
<path d="M292.883 537.644V537.812C292.883 538.097 292.871 538.377 292.871 538.656C292.866 538.796 292.866 538.936 292.866 539.076C292.855 539.523 292.838 539.976 292.821 540.418C284.23 531.978 239.735 492.467 168.174 500.661L171.161 506.087L146.774 505.824C146.825 505.701 146.881 505.583 146.937 505.46C147.278 504.727 147.63 504 147.994 503.284C150.997 497.49 154.946 492.165 159.192 487.327L161.999 491.326C161.999 491.326 240.015 475.939 291.02 520.97C292.105 525.758 292.726 530.719 292.86 535.804C292.866 536.139 292.871 536.486 292.877 536.822C292.883 537.096 292.883 537.37 292.883 537.644Z" fill="white"/>
<path d="M277.993 494.027C277.613 494.687 276.92 495.728 276.371 496.533C275.98 497.109 275.191 497.065 274.733 496.539C244.193 461.748 200.386 466.816 180.25 476.079C179.926 476.207 179.641 476.263 179.445 476.336C179.026 476.492 176.083 476.918 176.788 472.644C176.788 472.644 176.794 472.644 176.794 472.639C178.751 471.47 180.748 470.379 182.812 469.378C182.997 469.283 183.193 469.199 183.377 469.115C184.211 468.729 185.005 468.371 185.682 468.075C185.827 468.013 185.972 467.946 186.112 467.89C186.146 467.868 186.191 467.856 186.224 467.84C186.386 467.772 186.543 467.7 186.683 467.644C186.979 467.515 187.276 467.392 187.578 467.275C188.087 467.073 188.59 466.872 189.099 466.682C197.383 463.577 206.019 461.955 214.621 461.765C216.355 461.732 218.1 461.754 219.834 461.827H219.929C220.505 461.855 221.087 461.888 221.669 461.933C222.144 461.961 222.62 462 223.095 462.045C223.134 462.051 223.173 462.051 223.213 462.056C223.498 462.078 223.783 462.106 224.063 462.14C240.82 463.84 255.978 470.938 267.774 481.661C268.049 481.907 268.323 482.153 268.591 482.41C268.826 482.634 269.078 482.88 269.357 483.148C269.497 483.283 269.637 483.417 269.777 483.562C270.18 483.959 270.61 484.39 271.063 484.849C271.254 485.033 271.444 485.229 271.623 485.419C271.813 485.615 272.009 485.822 272.204 486.023C272.266 486.085 272.327 486.152 272.378 486.208C274.363 488.333 276.22 490.582 277.949 492.926C278.184 493.25 278.206 493.681 278.01 494.022L277.993 494.027Z" fill="white"/>
<path d="M938.091 494.75V511.53H909.221V581.4H889.081V511.55L859.541 511.53V494.75H938.091Z" fill="white"/>
<path d="M561.491 547.51C578.811 544.86 589.531 529.2 584.131 512.12C583.381 509.74 582.001 507.36 580.231 505.15C574.821 498.45 566.501 494.76 557.891 494.76H502.421L502.281 512.34V581.41H523.221V549.85H538.331C540.291 549.85 558.351 578.17 561.821 581.41H589.011L561.491 547.51ZM552.021 532.54H547.381C546.661 532.55 545.931 532.55 545.191 532.54H523.891V510.99H552.021C557.951 510.99 562.801 515.84 562.801 521.77C562.801 524.74 561.591 527.43 559.631 529.38C557.681 531.33 554.991 532.54 552.021 532.54Z" fill="white"/>
<path d="M347.871 526.22C347.521 527.62 347.341 529.09 347.341 530.6H397.001V547.84H347.341C347.341 549.01 347.461 550.15 347.691 551.25C349.261 558.71 355.881 564.31 363.801 564.31H397.001V581.33H368.701C344.971 581.33 325.551 561.91 325.551 538.17V537.74C325.551 537.65 325.551 537.56 325.561 537.47C325.581 536.97 325.591 536.46 325.611 535.96V535.92C326.181 524.94 330.911 515.02 338.231 507.7C344.531 501.4 352.741 497.03 361.901 495.56C364.091 495.32 366.301 495.15 368.511 495.02H397.001V512.2H365.741C362.811 512.2 360.041 512.89 357.581 514.1C355.781 515 354.141 516.18 352.731 517.59C350.391 519.93 348.681 522.89 347.871 526.2V526.22Z" fill="white"/>
<path d="M803.871 526.22C803.521 527.62 803.341 529.09 803.341 530.6H853.001V547.84H803.341C803.341 549.01 803.461 550.15 803.691 551.25C805.261 558.71 811.881 564.31 819.801 564.31H853.001V581.33H824.701C800.971 581.33 781.551 561.91 781.551 538.17V537.74C781.551 537.65 781.551 537.56 781.561 537.47C781.581 536.97 781.591 536.46 781.611 535.96V535.92C782.181 524.94 786.911 515.02 794.231 507.7C800.531 501.4 808.741 497.03 817.901 495.56C820.091 495.32 822.301 495.15 824.511 495.02H853.001V512.2H821.741C818.811 512.2 816.041 512.89 813.581 514.1C811.781 515 810.141 516.18 808.731 517.59C806.391 519.93 804.681 522.89 803.871 526.2V526.22Z" fill="white"/>
<path d="M488.971 494.76V542.99C488.971 568.54 471.071 581.31 447.261 581.31C423.451 581.31 409.611 568.84 409.611 543.88V494.76H429.961L430.051 544.26C430.051 558.02 437.211 564.76 447.971 564.76C458.731 564.76 468.191 557.9 468.191 544.61L468.171 494.76H488.971Z" fill="white"/>
<path d="M637.161 494.75C598.131 494.75 591.441 514.15 591.441 538.08C591.441 567.57 601.831 581.5 637.161 581.4C668.211 581.32 682.871 566.42 682.871 538.08C682.871 514.15 670.131 494.75 637.161 494.75ZM660.081 547.66C660.081 556.76 652.641 564.2 643.541 564.2H630.771C621.671 564.2 614.231 556.76 614.231 547.66V528.5C614.231 519.4 621.671 511.95 630.771 511.95H643.541C652.641 511.95 660.081 519.4 660.081 528.5V547.66Z" fill="white"/>
<path d="M711.861 581.31H690.711L690.771 521.75C690.771 518.56 690.971 515.37 691.471 512.21C695.391 487.49 710.801 488.82 728.241 518.38L766.851 581.31L747.151 581.33L711.861 525.7V581.31Z" fill="white"/>
<path d="M772.601 581.02L721.441 494.75H754.461C770.541 494.75 772.601 510.59 772.601 533.02V581.02Z" fill="white"/>
</g>
</svg>
